<svg xmlns="http://www.w3.org/2000/svg" xmlns:xlink="http://www.w3.org/1999/xlink" width="43" height="41"><defs><path id="a" d="M80.6 5631l-3.7 3.7v8.8a1.1 1.1 0 0 0 0 .2v.2a1.4 1.4 0 0 0-.1 0v.2h-.1a2.2 2.2 0 0 1 0 .2h-.1l-.1.2-.1.1-.2.1-.2.2h-3.7c-.3 0-.7 0-.9-.3a1.3 1.3 0 0 1-.4-1c0-.6.6-1.2 1.3-1.2h1.9v-8a1.9 1.9 0 0 1 0-.5v-.2l.4-.5 3.2-3.3-2.9-2.9h-.1a1.4 1.4 0 0 1-.6-1 1.3 1.3 0 0 1 0-.4v-8h-1.8a1.3 1.3 0 0 1-1.4-1.3 1.3 1.3 0 0 1 1.3-1.3h3.2l.5.1h.1l.1.1.2.2.2.2a1.6 1.6 0 0 1 .1.3v.1l.1.1a.8.8 0 0 1 0 .1l.1.3v8.7l3.7 3.7c.3.3.4.7.4 1 0 .5-.1.8-.4 1zM67 5611.2l-.6 7a1.1 1.1 0 0 1 0 .5l-2.3 26a1.3 1.3 0 0 1-.3.8l-.2.2-4.6 4-.9.3c-.3 0-.7-.2-1-.5l-3.8-4.7a1.3 1.3 0 0 1-.3-1l3-33.6v-.2-.2l.2-.2.1-.2h.1l.2-.2h.1l.2-.1h.2l.2-.1 8.5.8h.1l.6.3c.4.3.5.7.5 1.1zm-3.3 8.3l-6-.5-2 23.8 6 .5zm.6-7.2l-6-.5-.4 4.6 6 .6zM38 5630a1.4 1.4 0 0 1 .4-1l3.7-3.8v-8.7-.3a1.2 1.2 0 0 0 .1-.2v-.1a1.1 1.1 0 0 0 .1-.1 1.6 1.6 0 0 1 0-.2h.1l.1-.2h.1l.2-.2h.1a3.4 3.4 0 0 0 .1-.1l.5-.1h3.2a1.3 1.3 0 0 1 1.3 1.3c0 .8-.6 1.4-1.4 1.4h-1.8v8.3a1.4 1.4 0 0 1-.6 1h-.1l-3 3 3.3 3.2c.1.1.3.3.3.5l.1.2v8.5h1.9a1.3 1.3 0 0 1 .9 2.2c-.3.3-.6.4-1 .4h-3l-.6-.1-.2-.1-.2-.2a1.4 1.4 0 0 1-.2-.2 2.2 2.2 0 0 1-.1-.2v-.2a1.4 1.4 0 0 0-.1-.1 2.3 2.3 0 0 0 0-.2 1.1 1.1 0 0 0-.1-.2v-8.8l-3.7-3.7a1.3 1.3 0 0 1-.4-1z"/></defs><use fill="#8d81ac" transform="translate(-38 -5609)" xlink:href="#a"/></svg>